<svg width="58" height="54" viewBox="0 0 58 54" fill="none" xmlns="http://www.w3.org/2000/svg">
<path d="M33.1407 30.0653C33.1407 30.6826 32.9585 31.2862 32.6171 31.7995C32.2757 32.3128 31.7904 32.7129 31.2226 32.9492C30.6549 33.1854 30.0301 33.2472 29.4274 33.1268C28.8247 33.0063 28.2711 32.709 27.8365 32.2725C27.402 31.836 27.1061 31.2798 26.9862 30.6742C26.8663 30.0687 26.9278 29.4411 27.163 28.8707C27.3981 28.3004 27.7964 27.8129 28.3074 27.4699C28.8183 27.1269 29.4191 26.9438 30.0336 26.9438C30.8576 26.9438 31.648 27.2727 32.2307 27.8581C32.8134 28.4434 33.1407 29.2374 33.1407 30.0653ZM44.5335 26.9438C43.919 26.9438 43.3182 27.1269 42.8073 27.4699C42.2963 27.8129 41.8981 28.3004 41.6629 28.8707C41.4277 29.4411 41.3662 30.0687 41.4861 30.6742C41.606 31.2798 41.9019 31.836 42.3364 32.2725C42.771 32.709 43.3246 33.0063 43.9273 33.1268C44.5301 33.2472 45.1548 33.1854 45.7225 32.9492C46.2903 32.7129 46.7756 32.3128 47.117 31.7995C47.4584 31.2862 47.6406 30.6826 47.6406 30.0653C47.6406 29.2374 47.3133 28.4434 46.7306 27.8581C46.1479 27.2727 45.3576 26.9438 44.5335 26.9438ZM57.8268 48.6563C58.0373 49.3739 58.0514 50.1352 57.8676 50.8601C57.6838 51.585 57.3089 52.2467 56.7823 52.7757C56.2558 53.3046 55.5971 53.6813 54.8755 53.8659C54.154 54.0506 53.3962 54.0364 52.6819 53.825L46.2838 51.9339C43.7616 53.156 41.0188 53.8516 38.2214 53.9787C35.4239 54.1059 32.6298 53.6618 30.008 52.6735C27.3862 51.6851 24.9911 50.1729 22.9675 48.2284C20.9438 46.2838 19.3337 43.9472 18.2343 41.3598C15.9693 41.0923 13.7647 40.4461 11.7119 39.4479L5.31382 41.339C4.59956 41.5505 3.84179 41.5646 3.12021 41.38C2.39863 41.1953 1.73993 40.8187 1.21341 40.2897C0.686884 39.7608 0.312 39.099 0.128197 38.3741C-0.0556061 37.6492 -0.0415331 36.8879 0.168935 36.1704L2.05134 29.7427C0.870756 27.2472 0.19666 24.5406 0.0683721 21.7806C-0.0599156 19.0206 0.360174 16.2626 1.30413 13.6674C2.24809 11.0723 3.69702 8.69199 5.56639 6.66537C7.43576 4.63875 9.68813 3.00641 12.1921 1.86357C14.6961 0.720735 17.4016 0.0902867 20.1506 0.00900677C22.8997 -0.0722731 25.6374 0.397243 28.2039 1.39016C30.7705 2.38309 33.1145 3.87953 35.0993 5.7922C37.0841 7.70486 38.6698 9.99545 39.7641 12.5303C43.0359 12.9264 46.1664 14.101 48.8956 15.9566C51.6249 17.8122 53.874 20.2952 55.4563 23.1994C57.0385 26.1035 57.9082 29.345 57.9931 32.6547C58.078 35.9643 57.3757 39.2465 55.9444 42.2287L57.8268 48.6563ZM16.906 36.9065C16.3937 34.0875 16.4669 31.1924 17.121 28.4031C17.7751 25.6138 18.9961 22.9905 20.7072 20.6977C22.4183 18.4049 24.5827 16.4921 27.0646 15.0795C29.5464 13.6669 32.2921 12.7848 35.1293 12.4887C34.0793 10.5735 32.6641 8.88489 30.9644 7.51917C29.2648 6.15346 27.3141 5.13742 25.2236 4.52909C21.0017 3.3005 16.4669 3.80712 12.6169 5.9375C8.76677 8.06788 5.91678 11.6475 4.69384 15.8889C3.4709 20.1303 3.97519 24.6861 6.09578 28.554C6.35081 29.0329 6.40935 29.593 6.2589 30.1147L4.14088 37.3487L11.3287 35.2235C11.848 35.0724 12.4055 35.1312 12.8823 35.3874C14.1515 36.0686 15.5043 36.5794 16.906 36.9065ZM51.9 41.0399C53.7738 37.5193 54.3259 33.4395 53.4557 29.5442C52.5855 25.6488 50.3508 22.1973 47.1592 19.8189C43.9675 17.4404 40.0313 16.2934 36.0682 16.587C32.105 16.8805 28.3789 18.595 25.5689 21.418C22.7589 24.2409 21.0523 27.9843 20.7601 31.9658C20.4679 35.9472 21.6096 39.9016 23.9771 43.108C26.3446 46.3144 29.7803 48.5594 33.6577 49.4337C37.5351 50.3079 41.5962 49.7532 45.1006 47.8707C45.5773 47.6145 46.1348 47.5557 46.6541 47.7069L53.8549 49.8347L51.7394 42.6136C51.5846 42.0883 51.6423 41.5228 51.9 41.0399Z" fill="#F0A501"/>
</svg>
