<svg width="130" height="117" viewBox="0 0 130 117" fill="none" xmlns="http://www.w3.org/2000/svg">
<g filter="url(#filter0_d_1_182)">
<rect x="4" width="121.521" height="108.208" rx="26" fill="white"/>
</g>
<path d="M69.1407 57.0653C69.1407 57.6826 68.9585 58.2862 68.6171 58.7995C68.2757 59.3128 67.7904 59.7129 67.2226 59.9492C66.6549 60.1854 66.0301 60.2472 65.4274 60.1268C64.8247 60.0063 64.2711 59.709 63.8365 59.2725C63.402 58.836 63.1061 58.2798 62.9862 57.6742C62.8663 57.0687 62.9278 56.4411 63.163 55.8707C63.3981 55.3004 63.7964 54.8129 64.3074 54.4699C64.8183 54.1269 65.4191 53.9438 66.0336 53.9438C66.8576 53.9438 67.648 54.2727 68.2307 54.8581C68.8134 55.4434 69.1407 56.2374 69.1407 57.0653ZM80.5335 53.9438C79.919 53.9438 79.3182 54.1269 78.8073 54.4699C78.2963 54.8129 77.8981 55.3004 77.6629 55.8707C77.4277 56.4411 77.3662 57.0687 77.4861 57.6742C77.606 58.2798 77.9019 58.836 78.3364 59.2725C78.771 59.709 79.3246 60.0063 79.9273 60.1268C80.5301 60.2472 81.1548 60.1854 81.7225 59.9492C82.2903 59.7129 82.7756 59.3128 83.117 58.7995C83.4584 58.2862 83.6406 57.6826 83.6406 57.0653C83.6406 56.2374 83.3133 55.4434 82.7306 54.8581C82.1479 54.2727 81.3576 53.9438 80.5335 53.9438ZM93.8268 75.6563C94.0373 76.3739 94.0514 77.1352 93.8676 77.8601C93.6838 78.585 93.3089 79.2467 92.7823 79.7757C92.2558 80.3046 91.5971 80.6813 90.8755 80.8659C90.154 81.0506 89.3962 81.0364 88.6819 80.825L82.2838 78.9339C79.7616 80.156 77.0188 80.8516 74.2214 80.9787C71.4239 81.1059 68.6298 80.6618 66.008 79.6735C63.3862 78.6851 60.9911 77.1729 58.9675 75.2284C56.9438 73.2838 55.3337 70.9472 54.2343 68.3598C51.9693 68.0923 49.7647 67.4461 47.7119 66.4479L41.3138 68.339C40.5996 68.5505 39.8418 68.5646 39.1202 68.38C38.3986 68.1953 37.7399 67.8187 37.2134 67.2897C36.6869 66.7608 36.312 66.099 36.1282 65.3741C35.9444 64.6492 35.9585 63.8879 36.1689 63.1704L38.0513 56.7427C36.8708 54.2472 36.1967 51.5406 36.0684 48.7806C35.9401 46.0206 36.3602 43.2626 37.3041 40.6674C38.2481 38.0723 39.697 35.692 41.5664 33.6654C43.4358 31.6388 45.6881 30.0064 48.1921 28.8636C50.6961 27.7207 53.4016 27.0903 56.1506 27.009C58.8997 26.9277 61.6374 27.3972 64.2039 28.3902C66.7705 29.3831 69.1145 30.8795 71.0993 32.7922C73.0841 34.7049 74.6698 36.9955 75.7641 39.5303C79.0359 39.9264 82.1664 41.101 84.8956 42.9566C87.6249 44.8122 89.874 47.2952 91.4563 50.1994C93.0385 53.1035 93.9082 56.345 93.9931 59.6547C94.078 62.9643 93.3757 66.2465 91.9444 69.2287L93.8268 75.6563ZM52.906 63.9065C52.3937 61.0875 52.4669 58.1924 53.121 55.4031C53.7751 52.6138 54.9961 49.9905 56.7072 47.6977C58.4183 45.4049 60.5827 43.4921 63.0646 42.0795C65.5464 40.6669 68.2921 39.7848 71.1293 39.4887C70.0793 37.5735 68.6641 35.8849 66.9644 34.5192C65.2648 33.1535 63.3141 32.1374 61.2236 31.5291C57.0017 30.3005 52.4669 30.8071 48.6169 32.9375C44.7668 35.0679 41.9168 38.6475 40.6938 42.8889C39.4709 47.1303 39.9752 51.6861 42.0958 55.554C42.3508 56.0329 42.4094 56.593 42.2589 57.1147L40.1409 64.3487L47.3287 62.2235C47.848 62.0724 48.4055 62.1312 48.8823 62.3874C50.1515 63.0686 51.5043 63.5794 52.906 63.9065ZM87.9 68.0399C89.7738 64.5193 90.3259 60.4395 89.4557 56.5442C88.5855 52.6488 86.3508 49.1973 83.1592 46.8189C79.9675 44.4404 76.0313 43.2934 72.0682 43.587C68.105 43.8805 64.3789 45.595 61.5689 48.418C58.7589 51.2409 57.0523 54.9843 56.7601 58.9658C56.4679 62.9472 57.6096 66.9016 59.9771 70.108C62.3446 73.3144 65.7803 75.5594 69.6577 76.4337C73.5351 77.3079 77.5962 76.7532 81.1006 74.8707C81.5773 74.6145 82.1348 74.5557 82.6541 74.7069L89.8549 76.8347L87.7394 69.6136C87.5846 69.0883 87.6423 68.5228 87.9 68.0399Z" fill="#F0A501"/>
<defs>
<filter id="filter0_d_1_182" x="0" y="0" width="129.521" height="116.208" filterUnits="userSpaceOnUse" color-interpolation-filters="sRGB">
<feFlood flood-opacity="0" result="BackgroundImageFix"/>
<feColorMatrix in="SourceAlpha" type="matrix" values="0 0 0 0 0 0 0 0 0 0 0 0 0 0 0 0 0 0 127 0" result="hardAlpha"/>
<feOffset dy="4"/>
<feGaussianBlur stdDeviation="2"/>
<feComposite in2="hardAlpha" operator="out"/>
<feColorMatrix type="matrix" values="0 0 0 0 0 0 0 0 0 0 0 0 0 0 0 0 0 0 0.25 0"/>
<feBlend mode="normal" in2="BackgroundImageFix" result="effect1_dropShadow_1_182"/>
<feBlend mode="normal" in="SourceGraphic" in2="effect1_dropShadow_1_182" result="shape"/>
</filter>
</defs>
</svg>
