<svg width="60" height="50" viewBox="0 0 60 50" fill="none" xmlns="http://www.w3.org/2000/svg">
<path d="M33.0973 35.7073C36.3414 33.4888 38.8392 30.1706 40.2127 26.2547C41.5863 22.3388 41.7609 18.0382 40.7101 14.0036C39.6593 9.96901 37.4404 6.41994 34.389 3.89332C31.3375 1.36669 27.6197 0 23.7978 0C19.9759 0 16.2581 1.36669 13.2066 3.89332C10.1552 6.41994 7.93625 9.96901 6.88549 14.0036C5.83474 18.0382 6.00934 22.3388 7.38289 26.2547C8.75644 30.1706 11.2542 33.4888 14.4983 35.7073C9.15656 37.6273 4.35031 41.2145 0.485645 46.2644C0.132325 46.7258 -0.0395969 47.3224 0.00770207 47.9229C0.055001 48.5235 0.317646 49.0788 0.737857 49.4668C1.15807 49.8547 1.70143 50.0435 2.24839 49.9915C2.79536 49.9396 3.30114 49.6512 3.65446 49.1898C8.84615 42.3847 16.0012 38.6384 23.7849 38.6384C31.5685 38.6384 38.7236 42.3847 43.9308 49.1898C44.2841 49.6512 44.7899 49.9396 45.3369 49.9915C45.8838 50.0435 46.4272 49.8547 46.8474 49.4668C47.2676 49.0788 47.5303 48.5235 47.5775 47.9229C47.6248 47.3224 47.4529 46.7258 47.0996 46.2644C43.2324 41.2145 38.4261 37.6273 33.0973 35.7073ZM10.3336 19.3249C10.3336 16.4038 11.1225 13.5484 12.6005 11.1196C14.0786 8.6908 16.1794 6.7978 18.6373 5.67995C21.0952 4.56211 23.7998 4.26963 26.4091 4.8395C29.0184 5.40938 31.4152 6.816 33.2964 8.88151C35.1776 10.947 36.4587 13.5786 36.9777 16.4436C37.4967 19.3085 37.2304 22.2781 36.2123 24.9768C35.1942 27.6755 33.4701 29.9821 31.258 31.605C29.046 33.2279 26.4453 34.0941 23.7849 34.0941C20.2186 34.0895 16.7996 32.5321 14.2779 29.7633C11.7562 26.9945 10.3377 23.2405 10.3336 19.3249ZM49.4872 7.28233C50.962 11.0907 51.7221 15.1866 51.7221 19.3249C51.7221 23.4632 50.962 27.5591 49.4872 31.3674C49.328 31.7771 49.0627 32.1263 48.7242 32.3717C48.3857 32.6171 47.989 32.7479 47.5833 32.7478C47.2408 32.7481 46.9035 32.655 46.6018 32.4769C46.3001 32.2988 46.0433 32.0412 45.8546 31.7273C45.6659 31.4134 45.5511 31.053 45.5205 30.6784C45.49 30.3038 45.5446 29.9267 45.6795 29.5809C46.9358 26.3376 47.5834 22.8494 47.5834 19.3249C47.5834 15.8004 46.9358 12.3121 45.6795 9.06884C45.4637 8.51443 45.4574 7.88861 45.6618 7.32907C45.8663 6.76952 46.2649 6.32208 46.7698 6.08518C47.2747 5.84827 47.8447 5.84131 48.3543 6.06582C48.8639 6.29033 49.2714 6.72792 49.4872 7.28233ZM59.9999 19.3249C60.0096 24.7102 59.0158 30.0408 57.0794 34.9887C56.853 35.525 56.4451 35.9432 55.9424 36.1546C55.4397 36.3661 54.8817 36.3541 54.3869 36.1213C53.892 35.8885 53.4993 35.4531 53.2921 34.9075C53.0849 34.362 53.0794 33.7493 53.2769 33.1994C54.982 28.8134 55.8611 24.0938 55.8611 19.3249C55.8611 14.556 54.982 9.83641 53.2769 5.45039C53.1604 5.17461 53.0955 4.87596 53.086 4.57215C53.0766 4.26833 53.1227 3.96552 53.2218 3.68165C53.3208 3.39777 53.4707 3.1386 53.6627 2.91949C53.8546 2.70038 54.0846 2.52578 54.3391 2.40603C54.5935 2.28628 54.8673 2.22382 55.1442 2.22234C55.4211 2.22086 55.6954 2.2804 55.9509 2.39743C56.2064 2.51445 56.438 2.68659 56.6318 2.90364C56.8257 3.12069 56.9779 3.37824 57.0794 3.66105C59.0158 8.60897 60.0096 13.9396 59.9999 19.3249Z" fill="#F0A501"/>
</svg>
