<svg width="343" height="329" viewBox="0 0 343 329" fill="none" xmlns="http://www.w3.org/2000/svg">
<g filter="url(#filter0_d_1_140)">
<g filter="url(#filter1_d_1_140)">
<rect x="110.3" y="110.3" width="121.521" height="108.208" rx="26" fill="white"/>
</g>
</g>
<path d="M174.397 175.007C177.641 172.789 180.139 169.47 181.513 165.554C182.886 161.639 183.061 157.338 182.01 153.303C180.959 149.269 178.74 145.72 175.689 143.193C172.638 140.666 168.92 139.3 165.098 139.3C161.276 139.3 157.558 140.666 154.507 143.193C151.455 145.72 149.236 149.269 148.185 153.303C147.135 157.338 147.309 161.639 148.683 165.554C150.056 169.47 152.554 172.789 155.798 175.007C150.457 176.927 145.65 180.514 141.786 185.564C141.432 186.026 141.26 186.622 141.308 187.223C141.355 187.823 141.618 188.379 142.038 188.767C142.458 189.155 143.001 189.343 143.548 189.291C144.095 189.239 144.601 188.951 144.954 188.49C150.146 181.684 157.301 177.938 165.085 177.938C172.869 177.938 180.024 181.684 185.231 188.49C185.584 188.951 186.09 189.239 186.637 189.291C187.184 189.343 187.727 189.155 188.147 188.767C188.568 188.379 188.83 187.823 188.878 187.223C188.925 186.622 188.753 186.026 188.4 185.564C184.532 180.514 179.726 176.927 174.397 175.007ZM151.634 158.625C151.634 155.704 152.422 152.848 153.901 150.419C155.379 147.991 157.479 146.098 159.937 144.98C162.395 143.862 165.1 143.569 167.709 144.139C170.318 144.709 172.715 146.116 174.596 148.181C176.478 150.247 177.759 152.878 178.278 155.743C178.797 158.608 178.53 161.578 177.512 164.277C176.494 166.975 174.77 169.282 172.558 170.905C170.346 172.528 167.745 173.394 165.085 173.394C161.519 173.389 158.1 171.832 155.578 169.063C153.056 166.294 151.638 162.54 151.634 158.625ZM190.787 146.582C192.262 150.391 193.022 154.486 193.022 158.625C193.022 162.763 192.262 166.859 190.787 170.667C190.628 171.077 190.363 171.426 190.024 171.672C189.686 171.917 189.289 172.048 188.883 172.048C188.541 172.048 188.204 171.955 187.902 171.777C187.6 171.599 187.343 171.341 187.155 171.027C186.966 170.713 186.851 170.353 186.821 169.978C186.79 169.604 186.845 169.226 186.979 168.881C188.236 165.637 188.883 162.149 188.883 158.625C188.883 155.1 188.236 151.612 186.979 148.369C186.764 147.814 186.757 147.188 186.962 146.629C187.166 146.069 187.565 145.622 188.07 145.385C188.575 145.148 189.145 145.141 189.654 145.366C190.164 145.59 190.571 146.028 190.787 146.582ZM201.3 158.625C201.31 164.01 200.316 169.341 198.379 174.289C198.153 174.825 197.745 175.243 197.242 175.454C196.74 175.666 196.182 175.654 195.687 175.421C195.192 175.188 194.799 174.753 194.592 174.207C194.385 173.662 194.379 173.049 194.577 172.499C196.282 168.113 197.161 163.394 197.161 158.625C197.161 153.856 196.282 149.136 194.577 144.75C194.46 144.474 194.395 144.176 194.386 143.872C194.377 143.568 194.423 143.265 194.522 142.981C194.621 142.698 194.771 142.438 194.963 142.219C195.155 142 195.385 141.826 195.639 141.706C195.894 141.586 196.167 141.524 196.444 141.522C196.721 141.521 196.995 141.58 197.251 141.697C197.506 141.814 197.738 141.986 197.932 142.203C198.126 142.42 198.278 142.678 198.379 142.961C200.316 147.909 201.31 153.239 201.3 158.625Z" fill="#F0A501"/>
<defs>
<filter id="filter0_d_1_140" x="106.3" y="110.3" width="129.521" height="116.208" filterUnits="userSpaceOnUse" color-interpolation-filters="sRGB">
<feFlood flood-opacity="0" result="BackgroundImageFix"/>
<feColorMatrix in="SourceAlpha" type="matrix" values="0 0 0 0 0 0 0 0 0 0 0 0 0 0 0 0 0 0 127 0" result="hardAlpha"/>
<feOffset dy="4"/>
<feGaussianBlur stdDeviation="2"/>
<feComposite in2="hardAlpha" operator="out"/>
<feColorMatrix type="matrix" values="0 0 0 0 0 0 0 0 0 0 0 0 0 0 0 0 0 0 0.25 0"/>
<feBlend mode="normal" in2="BackgroundImageFix" result="effect1_dropShadow_1_140"/>
<feBlend mode="normal" in="SourceGraphic" in2="effect1_dropShadow_1_140" result="shape"/>
</filter>
<filter id="filter1_d_1_140" x="0" y="-0.000198364" width="342.121" height="328.809" filterUnits="userSpaceOnUse" color-interpolation-filters="sRGB">
<feFlood flood-opacity="0" result="BackgroundImageFix"/>
<feColorMatrix in="SourceAlpha" type="matrix" values="0 0 0 0 0 0 0 0 0 0 0 0 0 0 0 0 0 0 127 0" result="hardAlpha"/>
<feMorphology radius="24" operator="erode" in="SourceAlpha" result="effect1_dropShadow_1_140"/>
<feOffset/>
<feGaussianBlur stdDeviation="67.15"/>
<feComposite in2="hardAlpha" operator="out"/>
<feColorMatrix type="matrix" values="0 0 0 0 0 0 0 0 0 0 0 0 0 0 0 0 0 0 0.5 0"/>
<feBlend mode="normal" in2="BackgroundImageFix" result="effect1_dropShadow_1_140"/>
<feBlend mode="normal" in="SourceGraphic" in2="effect1_dropShadow_1_140" result="shape"/>
</filter>
</defs>
</svg>
