<svg width="130" height="117" viewBox="0 0 130 117" fill="none" xmlns="http://www.w3.org/2000/svg">
<g filter="url(#filter0_d_1_169)">
<rect x="4" width="121.521" height="108.208" rx="26" fill="white"/>
</g>
<path d="M89.1667 28.6154H81.9167V26.3077C81.9167 25.6957 81.6621 25.1087 81.2088 24.6759C80.7556 24.2431 80.1409 24 79.5 24C78.8591 24 78.2444 24.2431 77.7912 24.6759C77.3379 25.1087 77.0833 25.6957 77.0833 26.3077V28.6154H52.9167V26.3077C52.9167 25.6957 52.6621 25.1087 52.2088 24.6759C51.7556 24.2431 51.1409 24 50.5 24C49.8591 24 49.2444 24.2431 48.7912 24.6759C48.3379 25.1087 48.0833 25.6957 48.0833 26.3077V28.6154H40.8333C39.5515 28.6154 38.3221 29.1016 37.4157 29.9672C36.5092 30.8328 36 32.0067 36 33.2308V79.3846C36 80.6087 36.5092 81.7826 37.4157 82.6482C38.3221 83.5137 39.5515 84 40.8333 84H89.1667C90.4485 84 91.6779 83.5137 92.5844 82.6482C93.4908 81.7826 94 80.6087 94 79.3846V33.2308C94 32.0067 93.4908 30.8328 92.5844 29.9672C91.6779 29.1016 90.4485 28.6154 89.1667 28.6154ZM48.0833 33.2308V35.5385C48.0833 36.1505 48.3379 36.7375 48.7912 37.1702C49.2444 37.603 49.8591 37.8462 50.5 37.8462C51.1409 37.8462 51.7556 37.603 52.2088 37.1702C52.6621 36.7375 52.9167 36.1505 52.9167 35.5385V33.2308H77.0833V35.5385C77.0833 36.1505 77.3379 36.7375 77.7912 37.1702C78.2444 37.603 78.8591 37.8462 79.5 37.8462C80.1409 37.8462 80.7556 37.603 81.2088 37.1702C81.6621 36.7375 81.9167 36.1505 81.9167 35.5385V33.2308H89.1667V42.4615H40.8333V33.2308H48.0833ZM89.1667 79.3846H40.8333V47.0769H89.1667V79.3846ZM77.5848 54.675C77.8095 54.8893 77.9877 55.1438 78.1094 55.424C78.231 55.7041 78.2936 56.0044 78.2936 56.3077C78.2936 56.611 78.231 56.9113 78.1094 57.1914C77.9877 57.4715 77.8095 57.7261 77.5848 57.9404L63.0848 71.7865C62.8603 72.0011 62.5938 72.1713 62.3004 72.2874C62.0071 72.4036 61.6926 72.4634 61.375 72.4634C61.0574 72.4634 60.7429 72.4036 60.4496 72.2874C60.1562 72.1713 59.8897 72.0011 59.6652 71.7865L52.4152 64.8635C51.9617 64.4304 51.707 63.8432 51.707 63.2308C51.707 62.6184 51.9617 62.0311 52.4152 61.5981C52.8687 61.1651 53.4837 60.9218 54.125 60.9218C54.7663 60.9218 55.3813 61.1651 55.8348 61.5981L61.375 66.8913L74.1652 54.675C74.3897 54.4604 74.6562 54.2902 74.9496 54.1741C75.2429 54.058 75.5574 53.9982 75.875 53.9982C76.1926 53.9982 76.5071 54.058 76.8004 54.1741C77.0938 54.2902 77.3604 54.4604 77.5848 54.675Z" fill="#F0A501"/>
<defs>
<filter id="filter0_d_1_169" x="0" y="0" width="129.521" height="116.208" filterUnits="userSpaceOnUse" color-interpolation-filters="sRGB">
<feFlood flood-opacity="0" result="BackgroundImageFix"/>
<feColorMatrix in="SourceAlpha" type="matrix" values="0 0 0 0 0 0 0 0 0 0 0 0 0 0 0 0 0 0 127 0" result="hardAlpha"/>
<feOffset dy="4"/>
<feGaussianBlur stdDeviation="2"/>
<feComposite in2="hardAlpha" operator="out"/>
<feColorMatrix type="matrix" values="0 0 0 0 0 0 0 0 0 0 0 0 0 0 0 0 0 0 0.25 0"/>
<feBlend mode="normal" in2="BackgroundImageFix" result="effect1_dropShadow_1_169"/>
<feBlend mode="normal" in="SourceGraphic" in2="effect1_dropShadow_1_169" result="shape"/>
</filter>
</defs>
</svg>
