<svg width="58" height="60" viewBox="0 0 58 60" fill="none" xmlns="http://www.w3.org/2000/svg">
<path d="M53.1667 4.61538H45.9167V2.30769C45.9167 1.69565 45.6621 1.10868 45.2088 0.675907C44.7556 0.243131 44.1409 0 43.5 0C42.8591 0 42.2444 0.243131 41.7912 0.675907C41.3379 1.10868 41.0833 1.69565 41.0833 2.30769V4.61538H16.9167V2.30769C16.9167 1.69565 16.6621 1.10868 16.2088 0.675907C15.7556 0.243131 15.1409 0 14.5 0C13.8591 0 13.2444 0.243131 12.7912 0.675907C12.3379 1.10868 12.0833 1.69565 12.0833 2.30769V4.61538H4.83333C3.55145 4.61538 2.32208 5.10165 1.41565 5.9672C0.509225 6.83275 0 8.00669 0 9.23077V55.3846C0 56.6087 0.509225 57.7826 1.41565 58.6482C2.32208 59.5137 3.55145 60 4.83333 60H53.1667C54.4485 60 55.6779 59.5137 56.5844 58.6482C57.4908 57.7826 58 56.6087 58 55.3846V9.23077C58 8.00669 57.4908 6.83275 56.5844 5.9672C55.6779 5.10165 54.4485 4.61538 53.1667 4.61538ZM12.0833 9.23077V11.5385C12.0833 12.1505 12.3379 12.7375 12.7912 13.1702C13.2444 13.603 13.8591 13.8462 14.5 13.8462C15.1409 13.8462 15.7556 13.603 16.2088 13.1702C16.6621 12.7375 16.9167 12.1505 16.9167 11.5385V9.23077H41.0833V11.5385C41.0833 12.1505 41.3379 12.7375 41.7912 13.1702C42.2444 13.603 42.8591 13.8462 43.5 13.8462C44.1409 13.8462 44.7556 13.603 45.2088 13.1702C45.6621 12.7375 45.9167 12.1505 45.9167 11.5385V9.23077H53.1667V18.4615H4.83333V9.23077H12.0833ZM53.1667 55.3846H4.83333V23.0769H53.1667V55.3846ZM41.5848 30.675C41.8095 30.8893 41.9877 31.1438 42.1094 31.424C42.231 31.7041 42.2936 32.0044 42.2936 32.3077C42.2936 32.611 42.231 32.9113 42.1094 33.1914C41.9877 33.4715 41.8095 33.7261 41.5848 33.9404L27.0848 47.7865C26.8603 48.0011 26.5938 48.1713 26.3004 48.2874C26.0071 48.4036 25.6926 48.4634 25.375 48.4634C25.0574 48.4634 24.7429 48.4036 24.4496 48.2874C24.1562 48.1713 23.8897 48.0011 23.6652 47.7865L16.4152 40.8635C15.9617 40.4304 15.707 39.8432 15.707 39.2308C15.707 38.6184 15.9617 38.0311 16.4152 37.5981C16.8687 37.1651 17.4837 36.9218 18.125 36.9218C18.7663 36.9218 19.3813 37.1651 19.8348 37.5981L25.375 42.8913L38.1652 30.675C38.3897 30.4604 38.6562 30.2902 38.9496 30.1741C39.2429 30.058 39.5574 29.9982 39.875 29.9982C40.1926 29.9982 40.5071 30.058 40.8004 30.1741C41.0938 30.2902 41.3604 30.4604 41.5848 30.675Z" fill="#F0A501"/>
</svg>
