<svg width="57" height="57" viewBox="0 0 57 57" fill="none" xmlns="http://www.w3.org/2000/svg">
<path d="M40.6347 20.1843C40.8366 20.386 40.9969 20.6256 41.1062 20.8893C41.2155 21.153 41.2717 21.4356 41.2717 21.7211C41.2717 22.0065 41.2155 22.2892 41.1062 22.5528C40.9969 22.8165 40.8366 23.0561 40.6347 23.2578L25.4299 38.4626C25.2282 38.6645 24.9887 38.8247 24.725 38.9341C24.4613 39.0434 24.1786 39.0996 23.8932 39.0996C23.6077 39.0996 23.3251 39.0434 23.0614 38.9341C22.7977 38.8247 22.5581 38.6645 22.3564 38.4626L15.8401 31.9463C15.4325 31.5387 15.2035 30.9859 15.2035 30.4095C15.2035 29.8331 15.4325 29.2803 15.8401 28.8727C16.2477 28.4651 16.8005 28.2362 17.3769 28.2362C17.9533 28.2362 18.5061 28.4651 18.9136 28.8727L23.8932 33.855L37.5612 20.1843C37.7629 19.9823 38.0024 19.8221 38.2661 19.7128C38.5298 19.6035 38.8125 19.5472 39.0979 19.5472C39.3834 19.5472 39.666 19.6035 39.9297 19.7128C40.1934 19.8221 40.433 19.9823 40.6347 20.1843ZM56.4748 28.2374C56.4748 33.8222 54.8187 39.2816 51.7159 43.9252C48.6132 48.5688 44.2031 52.1881 39.0434 54.3253C33.8837 56.4625 28.2061 57.0217 22.7286 55.9322C17.251 54.8426 12.2196 52.1533 8.27055 48.2042C4.32148 44.2552 1.63213 39.2237 0.542586 33.7462C-0.54696 28.2687 0.0122348 22.5911 2.14946 17.4314C4.28668 12.2717 7.90593 7.86162 12.5495 4.75886C17.1932 1.65609 22.6526 0 28.2374 0C35.724 0.00790597 42.9017 2.98545 48.1955 8.27927C53.4893 13.5731 56.4669 20.7508 56.4748 28.2374ZM52.1306 28.2374C52.1306 23.5118 50.7293 18.8923 48.1038 14.963C45.4784 11.0338 41.7468 7.97139 37.3809 6.16297C33.015 4.35455 28.2109 3.88139 23.5761 4.80331C18.9412 5.72524 14.6839 8.00084 11.3424 11.3424C8.00085 14.6839 5.72525 18.9412 4.80333 23.5761C3.8814 28.2109 4.35457 33.015 6.16298 37.3809C7.9714 41.7468 11.0338 45.4784 14.9631 48.1038C18.8923 50.7292 23.5118 52.1306 28.2374 52.1306C34.5721 52.1234 40.6452 49.6037 45.1245 45.1245C49.6038 40.6452 52.1234 34.572 52.1306 28.2374Z" fill="#F0A500"/>
</svg>
