<svg width="51" height="42" viewBox="0 0 51 42" fill="none" xmlns="http://www.w3.org/2000/svg">
<path d="M25.2755 3.19313C20.9908 3.19313 16.8023 4.31646 13.2397 6.42107C9.6771 8.52569 6.90039 11.517 5.26071 15.0169C3.62102 18.5167 3.19201 22.3679 4.02791 26.0833C4.86381 29.7987 6.9271 33.2115 9.95684 35.8902C12.9866 38.5688 16.8467 40.393 21.0491 41.132C25.2515 41.8711 29.6073 41.4918 33.5659 40.0421C37.5244 38.5924 40.9079 36.1375 43.2883 32.9877C45.6688 29.8379 46.9394 26.1348 46.9394 22.3466C46.9328 17.2686 44.6482 12.4002 40.5869 8.80947C36.5256 5.21876 31.0191 3.19894 25.2755 3.19313ZM25.2755 38.3078C21.7049 38.3078 18.2145 37.3717 15.2457 35.6179C12.2768 33.864 9.96291 31.3712 8.59651 28.4547C7.2301 25.5382 6.87259 22.3289 7.56918 19.2327C8.26576 16.1365 9.98516 13.2925 12.51 11.0603C15.0347 8.8281 18.2515 7.30794 21.7535 6.69207C25.2555 6.0762 28.8854 6.39229 32.1842 7.60035C35.483 8.80842 38.3025 10.8542 40.2862 13.479C42.2699 16.1038 43.3287 19.1898 43.3287 22.3466C43.3233 26.5783 41.4196 30.6354 38.0351 33.6276C34.6506 36.6199 30.0619 38.3031 25.2755 38.3078ZM10.3049 2.72627L3.08359 9.11076C2.74484 9.41026 2.28539 9.57851 1.80632 9.57851C1.32726 9.57851 0.867812 9.41026 0.52906 9.11076C0.190309 8.81126 5.04779e-09 8.40505 0 7.9815C-5.04779e-09 7.55795 0.190309 7.15174 0.52906 6.85224L7.75034 0.467753C8.0891 0.168256 8.54854 0 9.02761 0C9.50668 0 9.96612 0.168256 10.3049 0.467753C10.6436 0.767251 10.8339 1.17346 10.8339 1.59701C10.8339 2.02056 10.6436 2.42677 10.3049 2.72627ZM50.0219 9.11076C49.8543 9.25916 49.6552 9.37689 49.436 9.45721C49.2168 9.53753 48.9819 9.57888 48.7447 9.57888C48.5074 9.57888 48.2725 9.53753 48.0533 9.45721C47.8342 9.37689 47.6351 9.25916 47.4674 9.11076L40.2461 2.72627C39.9074 2.42677 39.7171 2.02056 39.7171 1.59701C39.7171 1.17346 39.9074 0.767251 40.2461 0.467753C40.5849 0.168256 41.0443 8.34925e-09 41.5234 0C42.0025 -8.34925e-09 42.4619 0.168256 42.8007 0.467753L50.0219 6.85224C50.1898 7.00048 50.3229 7.17651 50.4138 7.37028C50.5047 7.56405 50.5514 7.77175 50.5514 7.9815C50.5514 8.19126 50.5047 8.39895 50.4138 8.59272C50.3229 8.78649 50.1898 8.96252 50.0219 9.11076ZM37.9127 20.7505C38.3915 20.7505 38.8507 20.9186 39.1893 21.218C39.5279 21.5173 39.7181 21.9233 39.7181 22.3466C39.7181 22.7699 39.5279 23.1759 39.1893 23.4752C38.8507 23.7746 38.3915 23.9427 37.9127 23.9427H25.2755C24.7967 23.9427 24.3375 23.7746 23.9989 23.4752C23.6604 23.1759 23.4702 22.7699 23.4702 22.3466V11.1737C23.4702 10.7504 23.6604 10.3444 23.9989 10.0451C24.3375 9.74579 24.7967 9.57762 25.2755 9.57762C25.7543 9.57762 26.2135 9.74579 26.5521 10.0451C26.8906 10.3444 27.0808 10.7504 27.0808 11.1737V20.7505H37.9127Z" fill="#F0A500"/>
</svg>
