<svg width="57" height="56" viewBox="0 0 57 56" fill="none" xmlns="http://www.w3.org/2000/svg">
<path d="M14.203 27.6319C14.2182 33.2073 12.9299 38.7092 10.4408 43.6982C10.322 43.9569 10.1525 44.189 9.94221 44.3809C9.73198 44.5728 9.48534 44.7205 9.21694 44.8153C8.94853 44.91 8.66383 44.9499 8.37971 44.9326C8.0956 44.9152 7.81787 44.841 7.56299 44.7143C7.30811 44.5875 7.08129 44.4109 6.89597 44.1948C6.71065 43.9788 6.57061 43.7277 6.48417 43.4565C6.39772 43.1853 6.36663 42.8995 6.39273 42.6161C6.41883 42.3326 6.5016 42.0573 6.63612 41.8065C8.83073 37.4045 9.9662 32.5506 9.95194 27.6319C9.94695 24.7636 10.5895 21.9312 11.8316 19.3458C13.0736 16.7604 14.8833 14.4887 17.1256 12.7C17.5657 12.3477 18.1277 12.1846 18.688 12.2467C19.2483 12.3087 19.761 12.5908 20.1133 13.0308C20.4656 13.4709 20.6287 14.0329 20.5667 14.5932C20.5046 15.1535 20.2226 15.6662 19.7825 16.0185C18.0381 17.4092 16.6303 19.176 15.6642 21.1869C14.6981 23.1978 14.1986 25.4009 14.203 27.6319ZM29.0817 25.5063C28.518 25.5063 27.9773 25.7303 27.5787 26.1289C27.1801 26.5275 26.9562 27.0681 26.9562 27.6319C26.9557 35.9129 24.8531 44.0583 20.8453 51.3049C20.5719 51.7982 20.5056 52.3799 20.6611 52.922C20.8165 53.4641 21.181 53.9222 21.6742 54.1957C22.1675 54.4691 22.7492 54.5353 23.2913 54.3799C23.8334 54.2244 24.2915 53.86 24.5649 53.3667C28.9212 45.4887 31.2066 36.634 31.2072 27.6319C31.2072 27.0681 30.9833 26.5275 30.5847 26.1289C30.1861 25.7303 29.6454 25.5063 29.0817 25.5063ZM29.0817 17.0042C26.2631 17.0042 23.5599 18.1239 21.5668 20.117C19.5737 22.1101 18.4541 24.8132 18.4541 27.6319C18.4541 28.1956 18.678 28.7362 19.0766 29.1348C19.4752 29.5335 20.0159 29.7574 20.5796 29.7574C21.1433 29.7574 21.6839 29.5335 22.0826 29.1348C22.4812 28.7362 22.7051 28.1956 22.7051 27.6319C22.7051 25.9407 23.3769 24.3188 24.5728 23.1229C25.7686 21.9271 27.3905 21.2553 29.0817 21.2553C30.7729 21.2553 32.3948 21.9271 33.5906 23.1229C34.7865 24.3188 35.4583 25.9407 35.4583 27.6319C35.4803 36.0834 33.6188 44.4336 30.009 52.0754C29.8898 52.3286 29.8217 52.6027 29.8085 52.8822C29.7953 53.1616 29.8372 53.441 29.9319 53.7042C30.0267 53.9674 30.1724 54.2095 30.3606 54.4164C30.5489 54.6234 30.7761 54.7912 31.0292 54.9104C31.2823 55.0295 31.5565 55.0976 31.8359 55.1109C32.1154 55.1241 32.3947 55.0821 32.658 54.9874C32.9212 54.8926 33.1632 54.747 33.3702 54.5587C33.5771 54.3704 33.745 54.1432 33.8641 53.8901C37.7388 45.6802 39.7356 36.7101 39.7093 27.6319C39.7093 24.8132 38.5896 22.1101 36.5966 20.117C34.6035 18.1239 31.9003 17.0042 29.0817 17.0042ZM29.0817 0C21.7556 0.00773644 14.7319 2.92143 9.55156 8.10173C4.37126 13.282 1.45757 20.3058 1.44983 27.6319C1.45378 30.2861 1.0045 32.9216 0.121376 35.4246C-0.0664147 35.9562 -0.0353119 36.5407 0.207842 37.0495C0.450997 37.5582 0.886285 37.9495 1.41795 38.1373C1.94961 38.3251 2.5341 38.294 3.04283 38.0508C3.55156 37.8077 3.94286 37.3724 4.13065 36.8407C5.17342 33.8826 5.70443 30.7684 5.70089 27.6319C5.70089 21.4309 8.16422 15.4839 12.549 11.0991C16.9337 6.71439 22.8807 4.25106 29.0817 4.25106C35.2827 4.25106 41.2297 6.71439 45.6144 11.0991C49.9992 15.4839 52.4625 21.4309 52.4625 27.6319C52.4636 32.4883 51.9928 37.3333 51.057 42.0987C51.0029 42.3726 51.0032 42.6545 51.058 42.9283C51.1129 43.202 51.2211 43.4623 51.3765 43.6943C51.532 43.9262 51.7316 44.1252 51.964 44.28C52.1963 44.4347 52.4569 44.5422 52.7308 44.5962C52.8666 44.6225 53.0044 44.6359 53.1427 44.6361C53.6345 44.6356 54.111 44.4645 54.4908 44.152C54.8707 43.8395 55.1304 43.4049 55.2257 42.9224C56.2155 37.8857 56.7138 32.7649 56.7136 27.6319C56.7051 20.306 53.7912 13.2827 48.611 8.10251C43.4309 2.92235 36.4075 0.00843829 29.0817 0ZM20.1545 34.0536C19.6032 33.944 19.031 34.0571 18.5629 34.3683C18.0949 34.6795 17.7691 35.1634 17.657 35.7142C16.7945 39.959 15.2504 44.0361 13.0844 47.7872C12.8026 48.2755 12.7262 48.8558 12.8722 49.4004C13.0182 49.945 13.3746 50.4093 13.8629 50.6912C14.3512 50.973 14.9315 51.0494 15.4761 50.9034C16.0207 50.7574 16.4851 50.401 16.7669 49.9127C19.1605 45.7646 20.8654 41.2558 21.815 36.5617C21.8709 36.288 21.8722 36.0059 21.819 35.7317C21.7657 35.4574 21.6589 35.1964 21.5047 34.9634C21.3505 34.7305 21.1518 34.5302 20.9202 34.3741C20.6885 34.218 20.4283 34.1091 20.1545 34.0536ZM29.0817 8.50211C28.2823 8.50228 27.4837 8.55197 26.6905 8.6509C26.1416 8.7333 25.6467 9.02712 25.3116 9.46956C24.9765 9.912 24.8278 10.468 24.8972 11.0186C24.9666 11.5693 25.2486 12.071 25.683 12.4165C26.1174 12.7619 26.6697 12.9238 27.2219 12.8674C29.3158 12.607 31.4412 12.7944 33.4573 13.4171C35.4734 14.0397 37.3343 15.0835 38.9168 16.4793C40.4992 17.8752 41.7671 19.5912 42.6366 21.5138C43.5061 23.4364 43.9573 25.5218 43.9604 27.6319C43.9598 30.3852 43.7894 33.1359 43.4503 35.8683C43.413 36.1462 43.431 36.4287 43.5034 36.6995C43.5758 36.9704 43.701 37.2243 43.8719 37.4465C44.0428 37.6688 44.256 37.8551 44.4991 37.9946C44.7423 38.1341 45.0107 38.2241 45.2888 38.2595C45.377 38.2701 45.4657 38.2754 45.5545 38.2754C46.0715 38.2743 46.5703 38.0849 46.9576 37.7426C47.3449 37.4002 47.5942 36.9285 47.6588 36.4156C48.0172 33.5068 48.1947 30.5786 48.1902 27.6478C48.1888 22.5769 46.1763 17.7136 42.5942 14.1244C39.012 10.5353 34.1526 8.51337 29.0817 8.50211ZM44.4732 42.577C44.2028 42.5071 43.9212 42.4911 43.6446 42.5301C43.3681 42.569 43.1019 42.6621 42.8613 42.804C42.6207 42.9459 42.4105 43.1338 42.2425 43.3569C42.0746 43.5801 41.9523 43.8342 41.8827 44.1047C41.4948 45.6165 41.0458 47.1336 40.5542 48.6215C40.3744 49.1546 40.4132 49.7372 40.6622 50.2417C40.9112 50.7462 41.3501 51.1314 41.8827 51.3129C42.1008 51.3871 42.3298 51.4248 42.5602 51.4245C43.0055 51.4242 43.4395 51.2839 43.8009 51.0236C44.1623 50.7634 44.4327 50.3961 44.5741 49.9738C45.1055 48.4009 45.5811 46.7855 45.9956 45.1781C46.0668 44.9077 46.084 44.6259 46.0462 44.3488C46.0083 44.0717 45.9161 43.8049 45.775 43.5635C45.6338 43.3221 45.4464 43.1109 45.2234 42.9421C45.0005 42.7733 44.7464 42.6501 44.4758 42.5796L44.4732 42.577Z" fill="#F0A501"/>
</svg>
