<svg width="230" height="68" viewBox="0 0 230 68" fill="none" xmlns="http://www.w3.org/2000/svg">
<path d="M74.5651 41.8462C73.9712 41.8462 73.6301 42.1452 73.6301 43.154C73.8007 51.9199 74.3945 63.4359 76.1002 64.542C77.4648 65.4462 78.4882 65.4462 78.4882 66.1561C78.4882 66.5597 78.3177 66.7615 77.8059 66.7615C77.0415 66.7615 71.9623 66.1561 67.8749 66.1561C63.7875 66.1561 58.5882 66.7615 57.8238 66.7615C57.4005 66.7615 57.2299 66.5597 57.2299 66.1561C57.2299 65.4537 57.7416 65.349 59.0178 64.542C61.4058 63.2342 61.7406 60.9175 61.7406 33.1028C61.7406 7.70927 61.3995 5.99794 59.0178 4.2866C58.0828 3.58413 57.2299 3.38236 57.2299 2.77704C57.2299 2.3735 57.4005 2.17172 57.8238 2.17172C58.5882 2.17172 63.699 2.67242 67.7043 2.67242C72.3034 2.67242 77.9765 1.56641 81.2111 1.56641C94.7368 1.56641 105.59 6.22213 105.59 21.4149C105.59 36.6076 95.9434 41.6445 82.7462 41.6445C80.6172 41.6445 80.4719 41.779 78.7662 41.5772L77.1236 41.4427C84.1929 42.7505 83.8012 57.2632 94.0229 57.2632C100.498 57.2632 103.392 53.437 104.162 47.9966C104.162 47.593 104.333 47.4959 104.504 47.4959C105.015 47.4959 105.698 50.0143 105.698 52.9363C105.698 60.4916 101.181 66.739 95.2232 66.739C84.5783 66.739 82.3229 41.8462 74.5714 41.8462H74.5651ZM77.8059 39.5819C88.6215 39.5819 94.5346 33.1326 94.5346 25.5475C94.5346 9.62985 91.1927 3.72612 80.8699 3.72612C77.6354 3.72612 75.5064 4.53321 74.6535 6.24455C73.548 8.26228 73.3774 7.5897 73.548 30.8608V35.8753C73.548 37.7884 74.1418 39.5894 77.8059 39.5894V39.5819Z" fill="white"/>
<path d="M131.297 66.5448C131.297 65.932 131.733 65.8274 132.687 65.2146C136.243 63.5705 136.325 61.8293 136.325 34.2387C136.325 6.64814 136.155 4.89944 132.857 3.26284C131.733 2.7472 131.297 2.65005 131.297 2.02978C131.297 1.61877 131.385 1.41699 131.903 1.41699C133.375 1.41699 140.621 1.93263 149.548 1.93263C163.68 1.93263 171.665 1.73086 175.481 1.73086C175.999 1.73086 176.088 1.75328 176.088 2.03726C176.088 2.58279 171.76 4.24181 171.76 4.55568C171.76 4.89197 175.968 3.8009 176.088 4.73503C176.252 6.0503 176.163 7.79152 176.113 8.47904C175.753 13.7326 175.658 19.2029 175.607 19.7036C175.544 20.3164 175.449 21.8035 175.108 21.8035C174.59 21.8035 174.42 21.5719 174.357 20.5929C173.478 4.25676 164.47 4.33149 155.973 4.33149C151.55 4.33149 150.464 5.50476 149.421 6.94706C148.297 8.59114 148.335 10.848 148.335 31.9818C148.335 34.2387 149.459 34.4405 154.753 34.4405C160.3 34.4405 161.172 31.3616 163.345 23.6718C163.516 23.059 163.781 22.8498 164.129 22.8498C164.299 22.8498 164.564 23.0515 164.564 23.5672C164.564 24.3892 164.129 29.0001 164.129 35.3597C164.129 42.7431 164.564 46.1284 164.564 47.1522C164.564 47.6678 164.305 47.8696 164.129 47.8696C163.781 47.8696 163.522 47.6678 163.345 47.0476C161.526 39.2531 160.477 36.1742 154.753 36.1742C149.466 36.1742 148.423 36.376 148.335 38.5357C148.335 62.0236 148.771 63.8694 152.757 65.2071C154.147 65.7228 154.836 65.9245 154.836 66.4402C154.836 66.8512 154.747 67.053 154.141 67.053C153.275 67.053 146.421 66.5373 141.916 66.5373C137.412 66.5373 132.68 67.1501 131.897 67.1501C131.379 67.1501 131.29 66.9483 131.29 66.5373L131.297 66.5448Z" fill="white"/>
<path d="M106.866 66.5223C106.866 65.9095 107.214 65.7078 108.42 65.095C111.44 63.6676 111.522 60.8129 111.522 34.2013C111.522 7.5897 111.434 5.04138 108.42 3.5094C107.214 3.00124 106.866 2.89661 106.866 2.28382C106.866 1.8728 107.037 1.56641 107.467 1.56641C108.244 1.56641 113.418 2.28382 117.808 2.28382C122.199 2.28382 127.291 1.56641 128.15 1.56641C128.58 1.56641 128.75 1.8728 128.75 2.28382C128.75 2.89661 128.321 2.99376 127.114 3.5094C124.094 5.04138 124.094 7.99324 124.094 34.2013C124.094 60.4094 124.094 63.6676 127.114 65.095C128.321 65.7078 128.75 65.9095 128.75 66.5223C128.75 66.9333 128.58 67.1351 128.15 67.1351C127.291 67.1351 121.946 66.4252 117.808 66.4252C113.67 66.4252 108.237 67.1351 107.467 67.1351C107.037 67.1351 106.866 66.9333 106.866 66.5223Z" fill="white"/>
<path d="M48.2339 65.8203C47.8169 62.3678 46.9009 61.3888 45.4858 61.3888C41.4047 61.3888 37.57 66.8068 28.2391 66.8068C11.6621 66.8068 0 53.699 0 34.9715C0 16.244 12.6602 2.15727 29.073 2.15727C37.57 2.15727 41.6511 6.49165 44.1528 6.49165C45.5679 6.49165 45.9849 5.40805 46.2376 3.33801C46.3197 1.95549 46.4903 1.56689 47.1536 1.56689C47.5706 1.56689 47.8233 1.86582 47.8233 2.65049C47.8233 18.8147 49.409 24.1356 49.409 25.4135C49.409 25.9067 49.2447 26.101 48.7393 26.101C48.4045 26.101 48.1581 25.8021 47.9875 25.2117C42.4913 8.85314 36.7424 3.62946 28.9088 3.62946C21.0751 3.62946 13.2477 9.93673 13.3299 34.964C13.3299 58.0259 19.401 64.6994 28.397 64.6994C34.2281 64.6994 38.2397 54.7901 38.2397 48.3857V43.8495C38.2397 37.4451 38.0754 36.653 35.321 35.2779C34.2407 34.7847 33.9059 34.6875 33.9059 34.0972C33.9059 33.7011 34.0701 33.5068 34.4871 33.5068C35.2389 33.5068 39.9833 34.1943 43.401 34.1943C47.6527 34.1943 52.8141 33.6039 53.648 33.6039C54.0649 33.6039 54.2292 33.7982 54.2292 34.0972C54.2292 34.8893 52.6435 34.9865 51.6453 35.7711C49.7311 37.049 49.5606 38.4315 49.5606 48.6771V65.514C49.5606 66.6947 49.3963 66.9936 48.8909 66.9936C48.5561 66.9936 48.3918 66.6947 48.2276 65.8129L48.2339 65.8203Z" fill="white"/>
<path d="M176.188 33.7704C176.188 13.8311 186.391 0 203.094 0C219.798 0 230 13.8311 230 33.7704C230 53.7097 219.88 67.5408 203.094 67.5408C186.309 67.5408 176.188 53.4032 176.188 33.7704ZM203.088 64.4681C211.951 64.4681 216.923 57.074 216.923 33.7779C216.923 10.4818 211.951 3.1849 203.088 3.1849C194.224 3.1849 189.253 9.77152 189.253 33.7779C189.253 57.7843 194.395 64.4681 203.088 64.4681Z" fill="white"/>
<path d="M203.089 20.4175C201.452 20.4175 200.814 23.7295 200.814 33.4935C200.814 43.2576 201.446 46.6144 203.089 46.6144C204.731 46.6144 205.363 42.9735 205.363 33.4935C205.363 24.0136 204.763 20.4175 203.089 20.4175Z" fill="white"/>
</svg>
